<svg xmlns="http://www.w3.org/2000/svg" xmlns:xlink="http://www.w3.org/1999/xlink" width="282" height="256.981" viewBox="0 0 282 256.981">
  <defs>
    <linearGradient id="linear-gradient" x1="0.189" y1="0.111" x2="0.747" y2="0.966" gradientUnits="objectBoundingBox">
      <stop offset="0" stop-color="#2dc1c3"/>
      <stop offset="1" stop-color="#0268f2"/>
    </linearGradient>
  </defs>
  <path id="Union_132" data-name="Union 132" d="M192.253,252.474l0,0a11.929,11.929,0,0,1-.921-15.9L142.637,185.04a8.168,8.168,0,0,1-10.135-1.106v0a8.056,8.056,0,0,1-2.372-5.294l-12.933-.745a13.117,13.117,0,0,1-3.861,8.777v0a13.2,13.2,0,1,1-18.7-18.638q.213-.212.435-.413L81.622,148.466a8.187,8.187,0,0,1-9.734-1.346v0a8.084,8.084,0,0,1-2.339-4.912h-19.1a9.823,9.823,0,0,1-2.826,5.8l0,0a9.889,9.889,0,0,1-13.962,0l0,0a9.81,9.81,0,0,1,0-13.915v0l.057-.056L14.44,112.085a9.9,9.9,0,0,1-11.546-1.769v0a9.81,9.81,0,0,1,0-13.915v-.007a9.866,9.866,0,0,1,6.562-2.874L10.925,83.9a9.88,9.88,0,0,1-4.118-2.462v0a9.806,9.806,0,0,1,0-13.912v0l0,0a9.892,9.892,0,0,1,11.957-1.54L40.7,39.778a13.047,13.047,0,0,1,1.1-17.245l0,0h0a13.146,13.146,0,0,1,18.553,0l0,0a13.063,13.063,0,0,1,3.1,4.893L158.03,11.717a9.833,9.833,0,0,1,2.712-8.831h0v0a9.889,9.889,0,0,1,13.962,0l0,0a9.826,9.826,0,0,1,.7,13.142L230.371,53.49a11.758,11.758,0,0,1,.889-1v0h0a11.655,11.655,0,1,1,14.275,18.2l20.632,40.364a11.64,11.64,0,0,1,11.407,19.437v0a11.718,11.718,0,0,1-12.684,2.544l-23.923,36.684a13.252,13.252,0,0,1,1.038.931l.007,0a13.2,13.2,0,1,1-21.391,14.768L198.7,192.949a9.214,9.214,0,0,1-2.562,8.181v0a9.272,9.272,0,0,1-3.8,2.29l5.126,29.072a12.058,12.058,0,0,1,11.772,3.051l.007.007a11.938,11.938,0,0,1,0,16.923l-.007,0a12.03,12.03,0,0,1-16.981,0Zm.187-17.115a12.05,12.05,0,0,1,3.449-2.3l-5.167-29.293a9.362,9.362,0,0,1-1.133.069,9.253,9.253,0,0,1-6.543-2.7v0a9.2,9.2,0,0,1-2.031-10l-35.228-9.833a8.116,8.116,0,0,1-1.769,2.637v0l-.087.085Zm3.7-47.276a9.229,9.229,0,0,1,2.123,3.28l21.779-7.482a13.172,13.172,0,0,1,1.176-10.507l-31.364-18.093a11.662,11.662,0,0,1-5.433,2.732l2.984,27.625a9.294,9.294,0,0,1,8.735,2.444Zm-14.346,1.557a9.306,9.306,0,0,1,4.01-3.454l-3.017-27.957q-.357.022-.72.022a11.675,11.675,0,0,1-8.257-3.406l0,0a11.7,11.7,0,0,1-1.865-2.422l-27.088,21.016a8.111,8.111,0,0,1,1.4,6.29ZM130.206,177a8.082,8.082,0,0,1,2.3-4.54h0a8.129,8.129,0,0,1,3.025-1.909l-5.082-40.321a13.311,13.311,0,0,1-7.87-.153L109.2,165.242a13.3,13.3,0,0,1,4.133,2.792l0,0a13.13,13.13,0,0,1,3.825,8.208Zm13.545-4.791,27.456-21.3a11.619,11.619,0,0,1,.058-8.726l-33.228-17.735a13.252,13.252,0,0,1-1.929,2.437v0a13.256,13.256,0,0,1-4.072,2.769l5.108,40.5a8.246,8.246,0,0,1,1.114-.075A8.128,8.128,0,0,1,143.751,172.2Zm78.376-.2a13.245,13.245,0,0,1,1.187-1.357h0a13.255,13.255,0,0,1,16.312-1.882L263.412,132.3a11.7,11.7,0,0,1-2.345-1.808v0a11.643,11.643,0,0,1-3-5.117l-64.583,18.841a11.627,11.627,0,0,1-2.456,9.854ZM96.358,166.589a13.272,13.272,0,0,1,11.293-1.9l13.4-35.232a13.253,13.253,0,0,1-5.627-5.1c-13.252,6.742-23.479,11.813-29.941,14.815a8.1,8.1,0,0,1-2.078,7.945v0q-.212.211-.439.406Zm93.958-28.2h0a11.641,11.641,0,0,1,2.717,4.248l64.708-18.875a11.677,11.677,0,0,1-.1-1.5,11.542,11.542,0,0,1,1.282-5.3c-9.043-4.15-30.364-13.934-43.073-19.728a9.894,9.894,0,0,1-13.852,5.075c-3.811,9.828-9.624,25-13.339,34.716A11.764,11.764,0,0,1,190.316,138.387ZM172,140.713a11.7,11.7,0,0,1,1.809-2.326h0a11.7,11.7,0,0,1,3.819-2.539l-2.9-71.741a14.319,14.319,0,0,1-9.113-1.425l-30.9,44.357a13.217,13.217,0,0,1,1.394,1.208v.007a13.147,13.147,0,0,1,2.7,14.743Zm-102.451-.155a8.091,8.091,0,0,1,2.339-4.919h.007a8.147,8.147,0,0,1,2.693-1.78L64.1,98.078a9.98,9.98,0,0,1-4.106-.092L45.539,132.5a9.906,9.906,0,0,1,2.08,1.585,9.807,9.807,0,0,1,2.882,6.472ZM83.4,135.639h0a8.148,8.148,0,0,1,1.613,2.29c5.968-3.148,15.9-7.726,29.653-15.013a13.179,13.179,0,0,1-.3-9.966L70.381,94.015a9.874,9.874,0,0,1-4.7,3.626L76.165,133.4a8.18,8.18,0,0,1,7.239,2.239Zm103.712.485c3.612-9.752,9.25-24.81,13.31-34.87a9.959,9.959,0,0,1-.744-.67l0,0a9.8,9.8,0,0,1-.1-13.81L180.443,61.736a14.166,14.166,0,0,1-4.085,1.986l2.89,71.6a11.737,11.737,0,0,1,7.868.807ZM34.974,132.98a9.917,9.917,0,0,1,9.069-1.175L58.42,97.473a9.9,9.9,0,0,1-3.138-2.108l0,0a9.9,9.9,0,0,1-1.971-2.8l-33.564,10.8a9.808,9.808,0,0,1-2.891,6.951,9.944,9.944,0,0,1-1.012.879Zm224.813-17.43a11.745,11.745,0,0,1,1.279-1.513v0h0a11.709,11.709,0,0,1,3.535-2.419L244.07,71.436a11.722,11.722,0,0,1-12.493-2.184l-17.056,18.4a9.844,9.844,0,0,1,1.8,8.033C229.506,101.675,250.892,111.475,259.788,115.55Zm-144.74-4.1a13.215,13.215,0,0,1,6.242-5.881L107.308,68.213A10.065,10.065,0,0,1,97.041,65.8v0q-.177-.176-.345-.361L70.58,83.089a9.833,9.833,0,0,1,.629,9.495Zm18.289-5.315L164.2,61.83a14.225,14.225,0,0,1-5.175-6.487l-44.991,1.824a9.971,9.971,0,0,1-2.816,8.629l0,0a10.062,10.062,0,0,1-2.4,1.767l14,37.418a13.321,13.321,0,0,1,10.511,1.149ZM19.609,101.686l33.135-10.66a9.782,9.782,0,0,1-.356-2.623,9.912,9.912,0,0,1,.058-1.071L23.087,77.811a9.881,9.881,0,0,1-9.3,6.508,10,10,0,0,1-1.247-.078l-1.428,9.344a9.867,9.867,0,0,1,5.742,2.809l0,0A9.822,9.822,0,0,1,19.609,101.686Zm193.8-15.252L230.451,68.05a11.575,11.575,0,0,1-2.61-7.331q0-.275.013-.548l-41.42-9.084a14.085,14.085,0,0,1-4.133,9.088q-.278.277-.57.538l19.093,24.974a9.89,9.89,0,0,1,12.582.748ZM52.763,85.707a9.81,9.81,0,0,1,2.519-4.261l0,0a9.893,9.893,0,0,1,13.962,0h0q.169.168.33.345L95.7,64.136a9.987,9.987,0,0,1-1.158-8.317L62.916,37.446a13.128,13.128,0,0,1-2.552,3.581h0v0a13.148,13.148,0,0,1-5.542,3.293l6.116,34.321a9.836,9.836,0,0,0-1.61.358L53.211,44.69a13.164,13.164,0,0,1-11.4-3.66l0,0h0l-21.684,25.9q.34.283.653.6l0,0a9.833,9.833,0,0,1,2.739,8.708ZM228.049,58.526a11.537,11.537,0,0,1,1.391-3.683L174.261,17.226a9.886,9.886,0,0,1-3.021,1.82l.565,16.961q.226-.007.454-.007a14.191,14.191,0,0,1,14.185,13.407Zm-114.41-2.981L158.5,53.724a14.178,14.178,0,0,1,11.664-17.571l-.556-16.644a9.957,9.957,0,0,1-1.884.179,9.858,9.858,0,0,1-4.182-.925l-51.9,33.352A10,10,0,0,1,113.639,55.545ZM95.154,54.278a10.049,10.049,0,0,1,15.266-3.328l51.533-33.119a9.96,9.96,0,0,1-1.211-1.026l0,0a9.854,9.854,0,0,1-2.265-3.495L63.914,29.015a13.112,13.112,0,0,1-.375,6.9Z" transform="translate(0.5 0.5)" stroke="rgba(0,0,0,0)" stroke-width="1" fill="url(#linear-gradient)"/>
</svg>
